<svg xmlns="http://www.w3.org/2000/svg" width="20" height="20" fill="currentColor" viewBox="0 0 20 20">
  <path d="M7.9 2.89c-1.411-.673-3.384-1.003-6.025-1.015a1.225 1.225 0 0 0-1.105.659 1.25 1.25 0 0 0-.145.587v11.176c0 .755.538 1.325 1.25 1.325 2.776 0 5.56.26 7.229 1.836a.16.16 0 0 0 .271-.117V4.173a.62.62 0 0 0-.213-.469A5.586 5.586 0 0 0 7.9 2.891Zm10.925-.808a1.224 1.224 0 0 0-.7-.207c-2.641.012-4.614.34-6.025 1.016a5.6 5.6 0 0 0-1.262.811.622.622 0 0 0-.213.47V17.34a.154.154 0 0 0 .26.11c1.004-.996 2.763-1.829 7.242-1.828a1.25 1.25 0 0 0 1.25-1.25V3.122a1.25 1.25 0 0 0-.552-1.04Z"/>
</svg>
