<svg width="30" height="30" viewBox="0 0 30 30" fill="none" xmlns="http://www.w3.org/2000/svg">
<path d="M19.6875 4.6875H10.3125C10.0639 4.6875 9.8254 4.78627 9.64959 4.96209C9.47377 5.1379 9.375 5.37636 9.375 5.625V6.5625H20.625V5.625C20.625 5.37636 20.5262 5.1379 20.3504 4.96209C20.1746 4.78627 19.9361 4.6875 19.6875 4.6875Z" fill="white" style="fill:white;fill-opacity:1;"/>
<path d="M29.0625 10.3125C29.0614 9.31827 28.666 8.36507 27.963 7.66205C27.2599 6.95902 26.3067 6.56359 25.3125 6.5625H22.5V5.625C22.4992 4.87932 22.2027 4.1644 21.6754 3.63712C21.1481 3.10984 20.4332 2.81328 19.6875 2.8125H10.3125C9.56682 2.81328 8.8519 3.10984 8.32462 3.63712C7.79734 4.1644 7.50078 4.87932 7.5 5.625V6.5625H4.6875C3.69327 6.56359 2.74007 6.95902 2.03705 7.66205C1.33402 8.36507 0.938586 9.31827 0.9375 10.3125V13.125H29.0625V10.3125ZM20.625 6.5625H9.375V5.625C9.375 5.37636 9.47377 5.1379 9.64959 4.96209C9.8254 4.78627 10.0639 4.6875 10.3125 4.6875H19.6875C19.9361 4.6875 20.1746 4.78627 20.3504 4.96209C20.5262 5.1379 20.625 5.37636 20.625 5.625V6.5625Z" fill="white" style="fill:white;fill-opacity:1;"/>
<path d="M19.6875 15.4688C19.6875 15.8417 19.5393 16.1994 19.2756 16.4631C19.0119 16.7268 18.6542 16.875 18.2812 16.875H11.7188C11.3458 16.875 10.9881 16.7268 10.7244 16.4631C10.4607 16.1994 10.3125 15.8417 10.3125 15.4688V15.2344C10.3125 15.1722 10.2878 15.1126 10.2439 15.0686C10.1999 15.0247 10.1403 15 10.0781 15H0.9375V23.4375C0.9375 24.4321 1.33259 25.3859 2.03585 26.0891C2.73911 26.7924 3.69294 27.1875 4.6875 27.1875H25.3125C26.3071 27.1875 27.2609 26.7924 27.9641 26.0891C28.6674 25.3859 29.0625 24.4321 29.0625 23.4375V15H19.9219C19.8597 15 19.8001 15.0247 19.7561 15.0686C19.7122 15.1126 19.6875 15.1722 19.6875 15.2344V15.4688Z" fill="white" style="fill:white;fill-opacity:1;"/>
</svg>
