<svg xmlns="http://www.w3.org/2000/svg" width="20" height="20" fill="currentColor" viewBox="0 0 20 20">
  <path d="M16.875 6.875H12.5V2.5A1.875 1.875 0 0 0 10.625.625h-7.5A1.875 1.875 0 0 0 1.25 2.5v16.25a.625.625 0 0 0 .625.625h4.063a.312.312 0 0 0 .312-.313v-2.794c0-.337.259-.625.595-.642a.623.623 0 0 1 .655.624v2.813a.313.313 0 0 0 .313.312h10.312a.624.624 0 0 0 .625-.625v-10a1.875 1.875 0 0 0-1.875-1.875ZM3.831 16.87a.625.625 0 1 1-.162-1.239.625.625 0 0 1 .162 1.239Zm0-3.125a.625.625 0 1 1-.162-1.239.625.625 0 0 1 .162 1.239Zm0-3.125a.625.625 0 1 1-.161-1.24.625.625 0 0 1 .162 1.239Zm0-3.125a.625.625 0 1 1-.162-1.24.625.625 0 0 1 .162 1.24Zm0-3.125a.625.625 0 1 1-.162-1.24.625.625 0 0 1 .162 1.24Zm3.125 9.375a.625.625 0 1 1-.162-1.239.625.625 0 0 1 .162 1.239Zm0-3.125a.625.625 0 1 1-.162-1.239.625.625 0 0 1 .162 1.239Zm0-3.125a.625.625 0 1 1-.162-1.24.625.625 0 0 1 .162 1.24Zm0-3.125a.625.625 0 1 1-.162-1.24.625.625 0 0 1 .162 1.24Zm3.125 12.5a.624.624 0 1 1-.162-1.238.624.624 0 0 1 .162 1.238Zm0-3.125a.624.624 0 1 1-.162-1.238.624.624 0 0 1 .162 1.238Zm0-3.125a.624.624 0 1 1-.162-1.238.624.624 0 0 1 .162 1.238Zm0-3.125a.625.625 0 1 1-.162-1.24.625.625 0 0 1 .162 1.24Zm0-3.125a.625.625 0 1 1-.162-1.24.625.625 0 0 1 .162 1.24Zm7.263 13.755H12.5v-10h4.375a.625.625 0 0 1 .625.625v9.219a.156.156 0 0 1-.156.156Z"/>
  <path d="M15.625 15.625a.625.625 0 1 0 0 1.25.625.625 0 0 0 0-1.25Zm0-3.125a.625.625 0 1 0 0 1.25.625.625 0 0 0 0-1.25Zm0-3.125a.625.625 0 1 0 0 1.25.625.625 0 0 0 0-1.25Zm-2.5 6.25a.625.625 0 1 0 0 1.25.625.625 0 0 0 0-1.25Zm0-3.125a.625.625 0 1 0 0 1.25.625.625 0 0 0 0-1.25Zm0-3.125a.625.625 0 1 0 0 1.25.625.625 0 0 0 0-1.25Z"/>
</svg>
