<svg xmlns="http://www.w3.org/2000/svg" width="20" height="20" fill="currentColor" viewBox="0 0 20 20">
  <path d="M17.5 15.625h-15a.625.625 0 1 1 0-1.25h15a.624.624 0 1 1 0 1.25ZM16.25 17.5H3.75a.625.625 0 1 1 0-1.25h12.5a.624.624 0 1 1 0 1.25Zm-15-6.875H.625V12.5a1.25 1.25 0 0 0 1.25 1.25H3.75v-.625a2.503 2.503 0 0 0-2.5-2.5Z"/>
  <path d="M18.75 9.375h.625v-2.5h-.625A3.754 3.754 0 0 1 15 3.125V2.5H5v.625a3.754 3.754 0 0 1-3.75 3.75H.625v2.5h.625A3.754 3.754 0 0 1 5 13.125v.625h10v-.625a3.754 3.754 0 0 1 3.75-3.75Zm-8.75 2.5a3.75 3.75 0 1 1 0-7.5 3.75 3.75 0 0 1 0 7.5Z"/>
  <path d="M10 10.625a2.5 2.5 0 1 0 0-5 2.5 2.5 0 0 0 0 5Zm6.25 2.5v.625h1.875a1.25 1.25 0 0 0 1.25-1.25v-1.875h-.625a2.503 2.503 0 0 0-2.5 2.5Zm2.5-7.5h.625V3.75a1.25 1.25 0 0 0-1.25-1.25H16.25v.625a2.503 2.503 0 0 0 2.5 2.5Zm-15-2.5V2.5H1.875a1.25 1.25 0 0 0-1.25 1.25v1.875h.625a2.503 2.503 0 0 0 2.5-2.5Z"/>
</svg>
