<svg xmlns="http://www.w3.org/2000/svg" width="20" height="20" fill="currentColor" viewBox="0 0 20 20">
  <g clip-path="url(#a)">
    <path d="M18.75 19.375H1.875a1.25 1.25 0 0 1-1.25-1.25V1.25a.625.625 0 0 1 1.25 0v16.875H18.75a.624.624 0 1 1 0 1.25Z"/>
    <path d="M6.094 16.875H4.53a1.406 1.406 0 0 1-1.406-1.406V9.53A1.406 1.406 0 0 1 4.53 8.124h1.563A1.406 1.406 0 0 1 7.5 9.531v5.938a1.406 1.406 0 0 1-1.406 1.406Zm5.625 0h-1.563a1.406 1.406 0 0 1-1.406-1.406V7.656a1.406 1.406 0 0 1 1.406-1.406h1.563a1.406 1.406 0 0 1 1.406 1.406v7.813a1.406 1.406 0 0 1-1.406 1.406Zm5.611 0h-1.563a1.406 1.406 0 0 1-1.406-1.406V5.156a1.406 1.406 0 0 1 1.406-1.406h1.563a1.406 1.406 0 0 1 1.406 1.406V15.47a1.406 1.406 0 0 1-1.406 1.406Z"/>
  </g>
  <defs>
    <clipPath id="a">
      <path d="M0 0h20v20H0z"/>
    </clipPath>
  </defs>
</svg>
