<svg width="25" height="25" viewBox="0 0 25 25" fill="none" xmlns="http://www.w3.org/2000/svg">
<path d="M12.1875 0C5.46738 0 0 5.46738 0 12.1875C0 18.9076 5.46738 24.375 12.1875 24.375C18.9076 24.375 24.375 18.9076 24.375 12.1875C24.375 5.46738 18.9076 0 12.1875 0ZM18.5303 8.10293L10.6553 17.4779C10.5689 17.5808 10.4614 17.6639 10.3401 17.7217C10.2188 17.7794 10.0865 17.8104 9.95215 17.8125H9.93633C9.80492 17.8125 9.675 17.7848 9.55498 17.7313C9.43496 17.6778 9.32753 17.5997 9.23965 17.502L5.86465 13.752C5.77894 13.661 5.71226 13.5539 5.66854 13.4369C5.62482 13.3198 5.60494 13.1952 5.61006 13.0704C5.61519 12.9455 5.64521 12.823 5.69838 12.7099C5.75154 12.5968 5.82678 12.4955 5.91965 12.412C6.01253 12.3284 6.12117 12.2642 6.2392 12.2232C6.35723 12.1822 6.48226 12.1652 6.60695 12.1733C6.73164 12.1813 6.85347 12.2141 6.96527 12.2699C7.07708 12.3257 7.17661 12.4033 7.25801 12.498L9.91172 15.4465L17.0947 6.89707C17.2558 6.71079 17.4838 6.59539 17.7293 6.57583C17.9748 6.55627 18.2182 6.6341 18.4068 6.79252C18.5954 6.95093 18.714 7.1772 18.7372 7.42241C18.7603 7.66762 18.6859 7.91207 18.5303 8.10293Z" fill="#169E5A" style="fill:#169E5A;fill:color(display-p3 0.0868 0.6200 0.3534);fill-opacity:1;"/>
</svg>
