<svg width="30" height="30" viewBox="0 0 30 30" fill="none" xmlns="http://www.w3.org/2000/svg">
<path d="M15 16.4062C15.7767 16.4062 16.4062 15.7767 16.4062 15C16.4062 14.2233 15.7767 13.5938 15 13.5938C14.2233 13.5938 13.5938 14.2233 13.5938 15C13.5938 15.7767 14.2233 16.4062 15 16.4062Z" fill="white" style="fill:white;fill-opacity:1;"/>
<path d="M15 2.8125C8.27988 2.8125 2.8125 8.27988 2.8125 15C2.8125 21.7201 8.27988 27.1875 15 27.1875C21.7201 27.1875 27.1875 21.7201 27.1875 15C27.1875 8.27988 21.7201 2.8125 15 2.8125ZM21.1564 9.45293L18.4096 16.3201C18.221 16.7918 17.9385 17.2202 17.5793 17.5793C17.2202 17.9385 16.7918 18.221 16.3201 18.4096L9.45293 21.1564C9.36774 21.1905 9.27443 21.1989 9.18454 21.1805C9.09466 21.162 9.01216 21.1176 8.94728 21.0527C8.8824 20.9878 8.83799 20.9053 8.81955 20.8155C8.80111 20.7256 8.80946 20.6323 8.84355 20.5471L11.5904 13.6799C11.779 13.2082 12.0615 12.7798 12.4207 12.4207C12.7798 12.0615 13.2082 11.779 13.6799 11.5904L20.5471 8.84355C20.6323 8.80946 20.7256 8.80111 20.8155 8.81955C20.9053 8.83799 20.9878 8.8824 21.0527 8.94728C21.1176 9.01216 21.162 9.09466 21.1805 9.18454C21.1989 9.27443 21.1905 9.36774 21.1564 9.45293Z" fill="white" style="fill:white;fill-opacity:1;"/>
</svg>
