<svg width="20" height="20" viewBox="0 0 20 20" fill="none" xmlns="http://www.w3.org/2000/svg">
<path d="M17.5049 2.375C17.522 2.37541 17.5391 2.37962 17.5547 2.38672L17.5967 2.41699C17.6305 2.45404 17.6421 2.53699 17.5801 2.59961L17.2402 2.9375L17.0625 2.75977L17.4121 2.41309V2.41211C17.4243 2.39996 17.4391 2.39017 17.4551 2.38379C17.4709 2.37752 17.4879 2.37463 17.5049 2.375Z" fill="#0C0C0D" stroke="#0C0C0D" style="fill:#0C0C0D;fill:color(display-p3 0.0475 0.0481 0.0500);fill-opacity:1;stroke:#0C0C0D;stroke:color(display-p3 0.0475 0.0481 0.0500);stroke-opacity:1;"/>
<path d="M15.5993 3.51668L8.5477 10.5557C8.50495 10.5983 8.47387 10.6512 8.45747 10.7093L8.1313 11.6807C8.12348 11.7071 8.12293 11.7351 8.1297 11.7617C8.13646 11.7884 8.15029 11.8127 8.16973 11.8322C8.18918 11.8516 8.2135 11.8654 8.24015 11.8722C8.2668 11.879 8.29478 11.8784 8.32114 11.8706L9.29184 11.5444C9.34991 11.528 9.40278 11.4969 9.44536 11.4542L16.4844 4.40184C16.5495 4.33602 16.5861 4.24717 16.5861 4.15457C16.5861 4.06198 16.5495 3.97313 16.4844 3.90731L16.0958 3.51668C16.0298 3.45097 15.9406 3.41406 15.8475 3.41406C15.7544 3.41406 15.6652 3.45097 15.5993 3.51668Z" fill="#0C0C0D" style="fill:#0C0C0D;fill:color(display-p3 0.0475 0.0481 0.0500);fill-opacity:1;"/>
<path d="M15.0914 7.56484L10.3301 12.3355C10.1461 12.52 9.91988 12.6569 9.67109 12.7344L8.65937 13.073C8.41927 13.1409 8.16543 13.1434 7.924 13.0805C7.68258 13.0175 7.46231 12.8913 7.28589 12.7149C7.10947 12.5385 6.98328 12.3182 6.92033 12.0768C6.85737 11.8354 6.85993 11.5815 6.92773 11.3414L7.26641 10.3297C7.34365 10.081 7.48026 9.85481 7.66445 9.6707L12.4352 4.90859C12.4789 4.86491 12.5087 4.80924 12.5208 4.74863C12.5329 4.68801 12.5267 4.62517 12.5031 4.56806C12.4795 4.51094 12.4394 4.46211 12.3881 4.42775C12.3367 4.39339 12.2763 4.37503 12.2145 4.375H4.0625C3.48234 4.375 2.92594 4.60547 2.5157 5.0157C2.10547 5.42594 1.875 5.98234 1.875 6.5625V15.9375C1.875 16.5177 2.10547 17.0741 2.5157 17.4843C2.92594 17.8945 3.48234 18.125 4.0625 18.125H13.4375C14.0177 18.125 14.5741 17.8945 14.9843 17.4843C15.3945 17.0741 15.625 16.5177 15.625 15.9375V7.78555C15.625 7.72374 15.6066 7.66333 15.5722 7.61195C15.5379 7.56057 15.4891 7.52054 15.4319 7.49692C15.3748 7.47329 15.312 7.46714 15.2514 7.47923C15.1908 7.49132 15.1351 7.52111 15.0914 7.56484Z" fill="#0C0C0D" style="fill:#0C0C0D;fill:color(display-p3 0.0475 0.0481 0.0500);fill-opacity:1;"/>
</svg>
