<svg width="20" height="20" viewBox="0 0 20 20" fill="none" xmlns="http://www.w3.org/2000/svg">
<path d="M16.3219 17.5001C16.2395 17.5001 16.1579 17.4838 16.0819 17.4522C16.0058 17.4205 15.9367 17.3741 15.8786 17.3157L1.58797 2.9407C1.4711 2.82311 1.40574 2.66392 1.40625 2.49814C1.40677 2.33236 1.47311 2.17358 1.5907 2.05672C1.70829 1.93985 1.86748 1.87449 2.03326 1.875C2.19904 1.87552 2.35782 1.94186 2.47468 2.05945L16.7649 16.4344C16.8519 16.522 16.9111 16.6333 16.9349 16.7544C16.9587 16.8755 16.9462 17.001 16.8988 17.115C16.8514 17.229 16.7713 17.3263 16.6687 17.3949C16.566 17.4634 16.4454 17.5 16.3219 17.5001Z" fill="#E62E3D" style="fill:#E62E3D;fill:color(display-p3 0.9000 0.1800 0.2400);fill-opacity:1;"/>
<path d="M14.2545 3.125C12.5322 3.125 11.34 4.09453 10.6455 4.90234C10.6235 4.92768 10.5963 4.94799 10.5658 4.96191C10.5353 4.97583 10.5021 4.98303 10.4686 4.98303C10.435 4.98303 10.4018 4.97583 10.3713 4.96191C10.3408 4.94799 10.3136 4.92768 10.2916 4.90234C9.59707 4.09453 8.40449 3.125 6.68262 3.125C6.27249 3.12478 5.86452 3.18453 5.47168 3.30234L15.9846 13.8766C16.1018 13.7422 16.2072 13.6172 16.3025 13.5016C17.865 11.5973 18.6131 9.64258 18.592 7.525C18.5689 5.09883 16.6225 3.125 14.2545 3.125Z" fill="#E62E3D" style="fill:#E62E3D;fill:color(display-p3 0.9000 0.1800 0.2400);fill-opacity:1;"/>
<path d="M2.69526 5.82812C2.46886 6.3662 2.34945 6.94322 2.3437 7.52695C2.3226 9.64453 3.07143 11.5992 4.63315 13.5035C5.36635 14.3969 6.69565 15.8258 9.76557 17.9098C9.97268 18.0514 10.2178 18.1273 10.4687 18.1273C10.7196 18.1273 10.9647 18.0514 11.1718 17.9098C11.9667 17.3699 12.6445 16.8746 13.2257 16.4207L2.69526 5.82812Z" fill="#E62E3D" style="fill:#E62E3D;fill:color(display-p3 0.9000 0.1800 0.2400);fill-opacity:1;"/>
</svg>
