<svg width="20" height="20" viewBox="0 0 20 20" fill="none" xmlns="http://www.w3.org/2000/svg">
<path d="M16.3219 17.5009C16.2395 17.501 16.1579 17.4848 16.0818 17.4531C16.0057 17.4215 15.9366 17.375 15.8786 17.3165L1.58797 2.9407C1.4711 2.82311 1.40574 2.66392 1.40625 2.49814C1.40677 2.33236 1.47311 2.17358 1.5907 2.05672C1.70829 1.93985 1.86748 1.87449 2.03326 1.875C2.19904 1.87552 2.35782 1.94186 2.47468 2.05945L16.7649 16.4345C16.8522 16.5219 16.9116 16.6334 16.9356 16.7546C16.9595 16.8758 16.947 17.0015 16.8996 17.1156C16.8522 17.2297 16.772 17.3273 16.6692 17.3958C16.5664 17.4644 16.4455 17.501 16.3219 17.5009Z" fill="#E62E3D" style="fill:#E62E3D;fill:color(display-p3 0.9000 0.1800 0.2400);fill-opacity:1;"/>
<path d="M14.2545 3.125C12.376 3.125 11.1295 4.2793 10.4686 5.11719C9.80918 4.27813 8.56113 3.125 6.68262 3.125C6.27245 3.12472 5.86446 3.1846 5.47168 3.30274L6.5623 4.375C7.43184 4.375 8.35176 4.72656 9.05996 5.4168C9.39592 5.74405 9.68216 6.11872 9.90957 6.52891C9.96156 6.6325 10.0413 6.7196 10.14 6.78046C10.2386 6.84132 10.3523 6.87355 10.4682 6.87355C10.5841 6.87355 10.6977 6.84132 10.7963 6.78046C10.895 6.7196 10.9748 6.6325 11.0268 6.52891C11.2543 6.11812 11.5408 5.74291 11.8771 5.41524C12.5854 4.72656 13.385 4.375 14.2545 4.375C15.94 4.375 17.3256 5.79414 17.3432 7.53906C17.3643 9.63633 16.4545 11.4277 15.1018 12.9891L15.9857 13.8785C16.1029 13.7441 16.2084 13.6191 16.3037 13.5035C17.8662 11.5992 18.6143 9.64414 18.5932 7.52695C18.5689 5.09844 16.6225 3.125 14.2545 3.125Z" fill="#E62E3D" style="fill:#E62E3D;fill:color(display-p3 0.9000 0.1800 0.2400);fill-opacity:1;"/>
<path d="M10.4687 16.8734C7.04604 14.5496 3.55463 11.6234 3.5937 7.5375C3.59619 7.29555 3.62553 7.05462 3.6812 6.81914L2.69526 5.82422C2.4689 6.3623 2.34949 6.93932 2.3437 7.52305C2.3226 9.64102 3.07143 11.5961 4.63315 13.4996C5.36635 14.393 6.69565 15.8219 9.76557 17.9059C9.9726 18.0477 10.2177 18.1237 10.4687 18.1237C10.7197 18.1237 10.9648 18.0477 11.1718 17.9059C11.9667 17.3664 12.6445 16.8707 13.2257 16.4172L12.3406 15.5262C11.7285 15.9984 11.0972 16.4457 10.4687 16.8734Z" fill="#E62E3D" style="fill:#E62E3D;fill:color(display-p3 0.9000 0.1800 0.2400);fill-opacity:1;"/>
</svg>
