<svg width="30" height="30" viewBox="0 0 30 30" fill="none" xmlns="http://www.w3.org/2000/svg">
<path d="M15 2.8125C8.26934 2.8125 2.8125 8.26934 2.8125 15C2.8125 21.7307 8.26934 27.1875 15 27.1875C21.7307 27.1875 27.1875 21.7307 27.1875 15C27.1875 8.26934 21.7307 2.8125 15 2.8125Z" stroke="white" style="stroke:white;stroke-opacity:1;" stroke-width="1.4" stroke-miterlimit="10"/>
<path d="M15.0002 2.8125C11.5977 2.8125 8.39844 8.26934 8.39844 15C8.39844 21.7307 11.5977 27.1875 15.0002 27.1875C18.4027 27.1875 21.602 21.7307 21.602 15C21.602 8.26934 18.4027 2.8125 15.0002 2.8125Z" stroke="white" style="stroke:white;stroke-opacity:1;" stroke-width="1.4" stroke-miterlimit="10"/>
<path d="M6.875 7.10938C9.11563 8.7002 11.9363 9.64883 15.0002 9.64883C18.0641 9.64883 20.8848 8.7002 23.1254 7.10938" stroke="white" style="stroke:white;stroke-opacity:1;" stroke-width="1.4" stroke-linecap="round" stroke-linejoin="round"/>
<path d="M23.1254 22.891C20.8848 21.3002 18.0641 20.3516 15.0002 20.3516C11.9363 20.3516 9.11563 21.3002 6.875 22.891" stroke="white" style="stroke:white;stroke-opacity:1;" stroke-width="1.4" stroke-linecap="round" stroke-linejoin="round"/>
<path d="M15 2.8125V27.1875" stroke="white" style="stroke:white;stroke-opacity:1;" stroke-width="1.4" stroke-miterlimit="10"/>
<path d="M27.1875 15H2.8125" stroke="white" style="stroke:white;stroke-opacity:1;" stroke-width="1.4" stroke-miterlimit="10"/>
</svg>
