<svg xmlns="http://www.w3.org/2000/svg" width="20" height="20" fill="currentColor" viewBox="0 0 20 20">
  <path d="m10.944 9.484-1.02-1.02a1.25 1.25 0 0 0-1.763-.005L1.07 15.003c-.259.243-.428.554-.444.9a1.254 1.254 0 0 0 .36.936l1.523 1.54.003.003c.236.235.554.367.886.368h.047c.347-.013.658-.176.905-.436l6.59-7.059a1.249 1.249 0 0 0 .004-1.771Zm8.196-2.062-.012-.012-1.339-1.325a.839.839 0 0 0-.597-.245.855.855 0 0 0-.5.162c0-.017.003-.033.004-.048.018-.254.045-.637-.203-.985a10.071 10.071 0 0 0-.972-1.126c-.52-.512-1.652-1.477-3.387-2.185a5.451 5.451 0 0 0-2.074-.408c-1.232 0-2.17.556-2.529.886a4.684 4.684 0 0 0-.554.634.625.625 0 0 0 .729.95c.11-.04.221-.075.335-.102.237-.05.48-.066.72-.045.516.042 1.125.298 1.395.511.457.368.677.863.713 1.605.007.15-.301.709-.781 1.347a.625.625 0 0 0 .057.82L11.489 9.2a.625.625 0 0 0 .859.025c.38-.34.959-.852 1.161-.977.3-.185.515-.22.575-.227a.749.749 0 0 1 .44.093.048.048 0 0 1-.012.038l-.07.067-.012.011a.842.842 0 0 0 .002 1.193l1.338 1.325a.84.84 0 0 0 .597.244.848.848 0 0 0 .594-.242l2.168-2.142a.854.854 0 0 0 .011-1.186Z"/>
</svg>
