<svg width="17" height="15" viewBox="0 0 17 15" fill="none" xmlns="http://www.w3.org/2000/svg">
<path d="M8.12543 15C7.87453 14.9997 7.62954 14.9239 7.42231 14.7824C4.35239 12.6984 3.02309 11.2695 2.28989 10.3762C0.727387 8.47188 -0.02066 6.5168 0.000433757 4.39961C0.0250431 1.97344 1.97153 0 4.3395 0C6.06137 0 7.25395 0.969922 7.94848 1.77773C7.97048 1.80307 7.99767 1.82338 8.02819 1.8373C8.05872 1.85122 8.09188 1.85842 8.12543 1.85842C8.15899 1.85842 8.19215 1.85122 8.22268 1.8373C8.2532 1.82338 8.28039 1.80307 8.30239 1.77773C8.99692 0.969141 10.1895 0 11.9114 0C14.2793 0 16.2258 1.97344 16.2504 4.4C16.2715 6.51758 15.5227 8.47266 13.961 10.3766C13.2278 11.2699 11.8985 12.6988 8.82856 14.7828C8.62129 14.9241 8.37629 14.9998 8.12543 15Z" fill="#E62E3D" style="fill:#E62E3D;fill:color(display-p3 0.9000 0.1800 0.2400);fill-opacity:1;"/>
</svg>
