<svg width="14" height="14" viewBox="0 0 14 14" fill="none" xmlns="http://www.w3.org/2000/svg">
<path d="M6.99982 12.25C6.82419 12.2498 6.65269 12.1967 6.50763 12.0977C4.35868 10.6389 3.42817 9.63867 2.91493 9.01332C1.82118 7.68031 1.29755 6.31176 1.31232 4.82973C1.32954 3.13141 2.69208 1.75 4.34966 1.75C5.55497 1.75 6.38978 2.42895 6.87595 2.99441C6.89135 3.01215 6.91038 3.02637 6.93175 3.03611C6.95312 3.04585 6.97633 3.0509 6.99982 3.0509C7.0233 3.0509 7.04651 3.04585 7.06788 3.03611C7.08925 3.02637 7.10828 3.01215 7.12368 2.99441C7.60985 2.4284 8.44466 1.75 9.64997 1.75C11.3076 1.75 12.6701 3.13141 12.6873 4.83C12.7021 6.3123 12.1779 7.68086 11.0847 9.01359C10.5715 9.63895 9.64095 10.6392 7.492 12.098C7.34691 12.1969 7.17542 12.2499 6.99982 12.25Z" fill="white" style="fill:white;fill-opacity:1;"/>
</svg>
