<svg xmlns="http://www.w3.org/2000/svg" width="20" height="18" fill="currentColor" viewBox="0 0 20 18">
  <path d="M9.35.076a.72.72 0 0 1 .643 0l8.95 4.475c.68.34.438 1.364-.322 1.364H.721c-.76 0-1.001-1.024-.322-1.364L9.35.076ZM5.351 7.115a.72.72 0 0 1 .72.72v5.76a.72.72 0 0 1-.72.72h-.96a.72.72 0 0 1-.72-.72v-5.76a.72.72 0 0 1 .72-.72h.96Zm4.871 0a.72.72 0 0 1 .72.72v5.76a.72.72 0 0 1-.72.72h-.96a.72.72 0 0 1-.72-.72v-5.76a.72.72 0 0 1 .72-.72h.96ZM0 16.235a.72.72 0 0 1 .72-.72h17.902a.72.72 0 0 1 .72.72v.96a.72.72 0 0 1-.72.72H.72a.72.72 0 0 1-.72-.72v-.96Zm14.951-9.12a.72.72 0 0 1 .72.72v5.76a.72.72 0 0 1-.72.72h-.96a.72.72 0 0 1-.72-.72v-5.76a.72.72 0 0 1 .72-.72h.96Z"/>
</svg>
