<svg width="168" height="29" viewBox="0 0 168 29" fill="none" xmlns="http://www.w3.org/2000/svg">
<path d="M12.16 7.75V11.265H3.496L5.263 9.479V22H1.33V7.75H12.16ZM11.1969 24.869V18.523H14.2749L15.5289 18.561H25.4089L26.3969 18.523H30.5389V24.869H26.8529V22H14.8829V24.869H11.1969ZM14.1609 7.75H28.0879V20.898H24.1359V9.403L25.9219 11.189H16.2509L17.8849 9.878C17.9863 10.4607 18.0433 11.0243 18.0559 11.569C18.0813 12.1137 18.0939 12.633 18.0939 13.127C18.0939 14.609 17.9609 15.8567 17.6949 16.87C17.4416 17.8833 17.0553 18.6497 16.5359 19.169C16.0293 19.6883 15.3896 19.948 14.6169 19.948L12.9639 18.58C13.4706 17.9847 13.8443 17.174 14.0849 16.148C14.3256 15.1093 14.4459 13.83 14.4459 12.31C14.4459 11.6133 14.4206 10.885 14.3699 10.125C14.3193 9.365 14.2496 8.57333 14.1609 7.75ZM44.6067 13.45V16.3H34.1757V13.45H44.6067ZM36.8547 14.875L35.9237 20.594L34.3277 18.808H45.2337V22H31.9907L33.0737 14.875L31.9907 7.75H45.1387V10.942H34.3277L35.9237 9.156L36.8547 14.875Z" fill="#0C0C0D" style="fill:#0C0C0D;fill:color(display-p3 0.0475 0.0481 0.0500);fill-opacity:1;"/>
<path d="M54.9205 22L57.4855 17.535H57.5425L63.1095 7.75H67.3845L59.1955 22H54.9205ZM57.4285 20.081L50.3035 7.75H54.6545L60.2215 17.44L57.4285 20.081ZM74.4396 17.706C72.413 17.706 70.8613 17.1803 69.7846 16.129C68.7206 15.065 68.1886 13.5323 68.1886 11.531V7.75H72.1216V11.208C72.1216 12.2087 72.394 12.9623 72.9386 13.469C73.4833 13.9757 74.3003 14.229 75.3896 14.229C76.023 14.229 76.688 14.1593 77.3846 14.02C78.0813 13.868 78.778 13.6527 79.4746 13.374L79.7026 16.528C78.9426 16.908 78.113 17.1993 77.2136 17.402C76.3143 17.6047 75.3896 17.706 74.4396 17.706ZM78.9616 22V7.75H82.9136V22H78.9616ZM85.5497 22V7.75H89.4257V19.929L88.3427 19.682L96.4177 7.75H101.567V22H97.6717V9.593L98.7737 9.84L90.5467 22H85.5497ZM108.699 9.479H112.651V22H108.699V9.479ZM103.265 7.75H118.085V11.246H103.265V7.75ZM119.783 22V7.75H123.716V20.67L121.949 18.903H127.497C128.143 18.903 128.643 18.7383 128.998 18.409C129.365 18.0797 129.549 17.6363 129.549 17.079C129.549 16.509 129.365 16.0657 128.998 15.749C128.643 15.4323 128.143 15.274 127.497 15.274H121.607V12.158H127.744C128.947 12.158 129.98 12.367 130.841 12.785C131.715 13.1903 132.38 13.7603 132.836 14.495C133.305 15.2297 133.539 16.091 133.539 17.079C133.539 18.067 133.305 18.9347 132.836 19.682C132.38 20.4167 131.715 20.9867 130.841 21.392C129.98 21.7973 128.947 22 127.744 22H119.783ZM151.085 16.034C150.945 17.288 150.515 18.39 149.793 19.34C149.071 20.2773 148.121 21.0057 146.943 21.525C145.777 22.0443 144.435 22.304 142.915 22.304C141.255 22.304 139.805 21.9937 138.564 21.373C137.322 20.7523 136.353 19.8847 135.657 18.77C134.973 17.6553 134.631 16.357 134.631 14.875C134.631 13.393 134.973 12.0947 135.657 10.98C136.353 9.86533 137.322 8.99767 138.564 8.377C139.805 7.75633 141.255 7.446 142.915 7.446C144.435 7.446 145.777 7.70567 146.943 8.225C148.121 8.74433 149.071 9.479 149.793 10.429C150.515 11.3663 150.945 12.462 151.085 13.716H147.133C147.006 13.108 146.759 12.595 146.392 12.177C146.024 11.7463 145.543 11.417 144.948 11.189C144.365 10.961 143.687 10.847 142.915 10.847C142.028 10.847 141.262 11.0117 140.616 11.341C139.97 11.6577 139.476 12.12 139.134 12.728C138.792 13.3233 138.621 14.039 138.621 14.875C138.621 15.711 138.792 16.433 139.134 17.041C139.476 17.6363 139.97 18.0987 140.616 18.428C141.262 18.7447 142.028 18.903 142.915 18.903C143.687 18.903 144.365 18.7953 144.948 18.58C145.543 18.3647 146.024 18.0417 146.392 17.611C146.759 17.1803 147.006 16.6547 147.133 16.034H151.085ZM163.94 14.077V16.87H157.993L157.974 16.794C156.885 16.794 155.928 16.6103 155.105 16.243C154.294 15.8757 153.661 15.3563 153.205 14.685C152.762 14.0137 152.54 13.2283 152.54 12.329C152.54 11.4043 152.762 10.6063 153.205 9.935C153.661 9.251 154.294 8.719 155.105 8.339C155.928 7.94633 156.885 7.75 157.974 7.75H166.676V22H162.724V8.795L164.491 10.562H158.544C157.898 10.562 157.391 10.7203 157.024 11.037C156.669 11.341 156.492 11.7717 156.492 12.329C156.492 12.8737 156.669 13.3043 157.024 13.621C157.391 13.925 157.898 14.077 158.544 14.077H163.94ZM161.584 15.331L156.72 22H152.16L157.176 15.331H161.584Z" fill="#2E7AE6" style="fill:#2E7AE6;fill:color(display-p3 0.1800 0.4800 0.9000);fill-opacity:1;"/>
</svg>
