<svg width="168" height="29" viewBox="0 0 168 29" fill="none" xmlns="http://www.w3.org/2000/svg">
<path d="M12.1601 7.75V11.265H3.49608L5.26308 9.479V22H1.33008V7.75H12.1601ZM11.197 24.869V18.523H14.275L15.529 18.561H25.409L26.397 18.523H30.539V24.869H26.853V22H14.883V24.869H11.197ZM14.161 7.75H28.088V20.898H24.136V9.403L25.922 11.189H16.251L17.885 9.878C17.9864 10.4607 18.0434 11.0243 18.056 11.569C18.0814 12.1137 18.094 12.633 18.094 13.127C18.094 14.609 17.961 15.8567 17.695 16.87C17.4417 17.8833 17.0554 18.6497 16.536 19.169C16.0294 19.6883 15.3897 19.948 14.617 19.948L12.964 18.58C13.4707 17.9847 13.8444 17.174 14.085 16.148C14.3257 15.1093 14.446 13.83 14.446 12.31C14.446 11.6133 14.4207 10.885 14.37 10.125C14.3194 9.365 14.2497 8.57333 14.161 7.75ZM44.6068 13.45V16.3H34.1758V13.45H44.6068ZM36.8548 14.875L35.9238 20.594L34.3278 18.808H45.2338V22H31.9908L33.0738 14.875L31.9908 7.75H45.1388V10.942H34.3278L35.9238 9.156L36.8548 14.875Z" fill="white" style="fill:white;fill-opacity:1;"/>
<path d="M54.9207 22.0003L57.4857 17.5353H57.5427L63.1097 7.75029H67.3847L59.1957 22.0003H54.9207ZM57.4287 20.0813L50.3037 7.75029H54.6547L60.2217 17.4403L57.4287 20.0813ZM74.4398 17.7063C72.4132 17.7063 70.8615 17.1806 69.7848 16.1293C68.7208 15.0653 68.1888 13.5326 68.1888 11.5313V7.75029H72.1218V11.2083C72.1218 12.209 72.3942 12.9626 72.9388 13.4693C73.4835 13.976 74.3005 14.2293 75.3898 14.2293C76.0232 14.2293 76.6882 14.1596 77.3848 14.0203C78.0815 13.8683 78.7782 13.653 79.4748 13.3743L79.7028 16.5283C78.9428 16.9083 78.1132 17.1996 77.2138 17.4023C76.3145 17.605 75.3898 17.7063 74.4398 17.7063ZM78.9618 22.0003V7.75029H82.9138V22.0003H78.9618ZM85.5499 22.0003V7.75029H89.4259V19.9293L88.3429 19.6823L96.4179 7.75029H101.567V22.0003H97.6719V9.59329L98.7739 9.84029L90.5469 22.0003H85.5499ZM108.699 9.47929H112.651V22.0003H108.699V9.47929ZM103.265 7.75029H118.085V11.2463H103.265V7.75029ZM119.783 22.0003V7.75029H123.716V20.6703L121.949 18.9033H127.497C128.143 18.9033 128.643 18.7386 128.998 18.4093C129.365 18.08 129.549 17.6366 129.549 17.0793C129.549 16.5093 129.365 16.066 128.998 15.7493C128.643 15.4326 128.143 15.2743 127.497 15.2743H121.607V12.1583H127.744C128.947 12.1583 129.98 12.3673 130.841 12.7853C131.715 13.1906 132.38 13.7606 132.836 14.4953C133.305 15.23 133.539 16.0913 133.539 17.0793C133.539 18.0673 133.305 18.935 132.836 19.6823C132.38 20.417 131.715 20.987 130.841 21.3923C129.98 21.7976 128.947 22.0003 127.744 22.0003H119.783ZM151.085 16.0343C150.945 17.2883 150.515 18.3903 149.793 19.3403C149.071 20.2776 148.121 21.006 146.943 21.5253C145.777 22.0446 144.435 22.3043 142.915 22.3043C141.255 22.3043 139.805 21.994 138.564 21.3733C137.322 20.7526 136.353 19.885 135.657 18.7703C134.973 17.6556 134.631 16.3573 134.631 14.8753C134.631 13.3933 134.973 12.095 135.657 10.9803C136.353 9.86562 137.322 8.99796 138.564 8.37729C139.805 7.75662 141.255 7.44629 142.915 7.44629C144.435 7.44629 145.777 7.70596 146.943 8.22529C148.121 8.74462 149.071 9.47929 149.793 10.4293C150.515 11.3666 150.945 12.4623 151.085 13.7163H147.133C147.006 13.1083 146.759 12.5953 146.392 12.1773C146.024 11.7466 145.543 11.4173 144.948 11.1893C144.365 10.9613 143.687 10.8473 142.915 10.8473C142.028 10.8473 141.262 11.012 140.616 11.3413C139.97 11.658 139.476 12.1203 139.134 12.7283C138.792 13.3236 138.621 14.0393 138.621 14.8753C138.621 15.7113 138.792 16.4333 139.134 17.0413C139.476 17.6366 139.97 18.099 140.616 18.4283C141.262 18.745 142.028 18.9033 142.915 18.9033C143.687 18.9033 144.365 18.7956 144.948 18.5803C145.543 18.365 146.024 18.042 146.392 17.6113C146.759 17.1806 147.006 16.655 147.133 16.0343H151.085ZM163.94 14.0773V16.8703H157.993L157.974 16.7943C156.885 16.7943 155.928 16.6106 155.105 16.2433C154.294 15.876 153.661 15.3566 153.205 14.6853C152.762 14.014 152.54 13.2286 152.54 12.3293C152.54 11.4046 152.762 10.6066 153.205 9.93529C153.661 9.25129 154.294 8.71929 155.105 8.33929C155.928 7.94662 156.885 7.75029 157.974 7.75029H166.676V22.0003H162.724V8.79529L164.491 10.5623H158.544C157.898 10.5623 157.391 10.7206 157.024 11.0373C156.669 11.3413 156.492 11.772 156.492 12.3293C156.492 12.874 156.669 13.3046 157.024 13.6213C157.391 13.9253 157.898 14.0773 158.544 14.0773H163.94ZM161.584 15.3313L156.72 22.0003H152.16L157.176 15.3313H161.584Z" fill="white" style="fill:white;fill-opacity:1;"/>
</svg>
