<svg width="29" height="29" viewBox="0 0 29 29" fill="none" xmlns="http://www.w3.org/2000/svg">
<g clip-path="url(#clip0_4012_1711)">
<path d="M21.7592 0H7.24075C3.24179 0 0 3.24179 0 7.24075V21.7592C0 25.7582 3.24179 29 7.24075 29H21.7592C25.7582 29 29 25.7582 29 21.7592V7.24075C29 3.24179 25.7582 0 21.7592 0Z" fill="#2E7AE6" style="fill:#2E7AE6;fill:color(display-p3 0.1800 0.4800 0.9000);fill-opacity:1;"/>
<path fill-rule="evenodd" clip-rule="evenodd" d="M14.738 25.4713C12.5628 25.4713 11.552 25.1538 9.7949 23.8836C8.68347 25.3126 5.16401 26.4293 5.01051 24.5187C5.01051 23.0845 4.69296 21.8725 4.33307 20.5494C3.90439 18.9193 3.41748 17.104 3.41748 14.4736C3.41748 8.19149 8.57235 3.46533 14.6798 3.46533C20.7926 3.46533 25.5823 8.42436 25.5823 14.5318C25.6028 20.5449 20.751 25.4393 14.738 25.4713ZM14.828 8.89538C11.8537 8.74191 9.53555 10.8007 9.02219 14.0291C8.59879 16.7018 9.35033 19.9566 9.99071 20.126C10.2977 20.2001 11.0704 19.5756 11.552 19.094C12.3484 19.6441 13.2757 19.9745 14.2406 20.0519C17.3225 20.2001 19.9559 17.8539 20.1628 14.7753C20.2833 11.6903 17.9104 9.07724 14.828 8.90069V8.89538Z" fill="white" style="fill:white;fill-opacity:1;"/>
</g>
<defs>
<clipPath id="clip0_4012_1711">
<rect width="29" height="29" fill="white" style="fill:white;fill-opacity:1;"/>
</clipPath>
</defs>
</svg>
