<svg width="50" height="50" viewBox="0 0 50 50" fill="none" xmlns="http://www.w3.org/2000/svg">
<g clip-path="url(#clip0_2043_28485)">
<path d="M37.5159 0H12.484C5.5893 0 0 5.5893 0 12.484V37.5159C0 44.4107 5.5893 50 12.484 50H37.5159C44.4107 50 50 44.4107 50 37.5159V12.484C50 5.5893 44.4107 0 37.5159 0Z" fill="url(#paint0_linear_2043_28485)"/>
<path d="M37.5159 0H12.484C5.5893 0 0 5.5893 0 12.484V37.5159C0 44.4107 5.5893 50 12.484 50H37.5159C44.4107 50 50 44.4107 50 37.5159V12.484C50 5.5893 44.4107 0 37.5159 0Z" fill="url(#paint1_radial_2043_28485)"/>
<path fill-rule="evenodd" clip-rule="evenodd" d="M25.4105 43.918C21.6602 43.918 19.9173 43.3705 16.8879 41.1805C14.9716 43.6442 8.9036 45.5696 8.63895 42.2755C8.63895 39.8027 8.09145 37.7131 7.47095 35.4318C6.73185 32.6213 5.89235 29.4915 5.89235 24.9564C5.89235 14.1251 14.78 5.97656 25.3102 5.97656C35.8494 5.97656 44.1075 14.5266 44.1075 25.0568C44.1429 35.4241 35.7778 43.8627 25.4105 43.918ZM25.5657 15.3387C20.4375 15.0741 16.4407 18.6237 15.5556 24.1899C14.8256 28.798 16.1214 34.4098 17.2255 34.7018C17.7547 34.8296 19.087 33.7528 19.9173 32.9225C21.2904 33.871 22.8893 34.4407 24.5528 34.5741C29.8665 34.8297 34.4068 30.7844 34.7636 25.4766C34.9713 20.1575 30.8801 15.6523 25.5657 15.3479V15.3387Z" fill="white" style="fill:white;fill-opacity:1;"/>
</g>
<defs>
<linearGradient id="paint0_linear_2043_28485" x1="5.89235" y1="38.0268" x2="50" y2="25" gradientUnits="userSpaceOnUse">
<stop stop-color="#44CCFF" style="stop-color:#44CCFF;stop-color:color(display-p3 0.2667 0.8000 1.0000);stop-opacity:1;"/>
<stop offset="0.662" stop-color="#5533EE" style="stop-color:#5533EE;stop-color:color(display-p3 0.3333 0.2000 0.9333);stop-opacity:1;"/>
<stop offset="1" stop-color="#9933DD" style="stop-color:#9933DD;stop-color:color(display-p3 0.6000 0.2000 0.8667);stop-opacity:1;"/>
</linearGradient>
<radialGradient id="paint1_radial_2043_28485" cx="0" cy="0" r="1" gradientUnits="userSpaceOnUse" gradientTransform="translate(-1.18954 -21.9593) rotate(51.356) scale(60.6759 25)">
<stop stop-color="#0000FF" style="stop-color:#0000FF;stop-color:color(display-p3 0.0000 0.0000 1.0000);stop-opacity:1;"/>
<stop offset="1" stop-opacity="0" style="stop-color:none;stop-opacity:0;"/>
</radialGradient>
<clipPath id="clip0_2043_28485">
<rect width="50" height="50" fill="white" style="fill:white;fill-opacity:1;"/>
</clipPath>
</defs>
</svg>
