<svg xmlns="http://www.w3.org/2000/svg" width="20" height="20" fill="currentColor" viewBox="0 0 20 20">
  <path d="M17.184 4.375h-.93l-.003.001-.001.003V16.25a1.25 1.25 0 0 0 2.5 0V5.941a1.566 1.566 0 0 0-1.566-1.566Z"/>
  <path d="M15 16.25V2.812a1.563 1.563 0 0 0-1.563-1.562H2.813A1.562 1.562 0 0 0 1.25 2.813v13.75a2.187 2.187 0 0 0 2.188 2.187H16.83a.044.044 0 0 0 .032-.013.044.044 0 0 0 .013-.032.045.045 0 0 0-.033-.043A2.504 2.504 0 0 1 15 16.25ZM3.75 5a.625.625 0 0 1 .625-.625h2.5A.625.625 0 0 1 7.5 5v2.5a.625.625 0 0 1-.625.625h-2.5A.625.625 0 0 1 3.75 7.5V5Zm8.125 10.625H4.393a.637.637 0 0 1-.642-.595.625.625 0 0 1 .624-.655h7.482c.337 0 .625.259.642.595a.624.624 0 0 1-.624.655Zm0-2.5H4.393a.637.637 0 0 1-.642-.595.625.625 0 0 1 .624-.655h7.482c.337 0 .625.259.642.595a.624.624 0 0 1-.624.655Zm0-2.5H4.393a.637.637 0 0 1-.642-.595.625.625 0 0 1 .624-.655h7.482c.337 0 .625.259.642.595a.624.624 0 0 1-.624.655Zm0-2.5H9.393a.637.637 0 0 1-.642-.595.625.625 0 0 1 .624-.655h2.482c.337 0 .625.259.642.595a.623.623 0 0 1-.624.655Zm0-2.5H9.393a.637.637 0 0 1-.642-.595.625.625 0 0 1 .624-.655h2.482c.337 0 .625.259.642.595a.623.623 0 0 1-.624.655Z"/>
</svg>
