<svg xmlns="http://www.w3.org/2000/svg" width="20" height="20" fill="currentColor" viewBox="0 0 20 20">
  <path d="M10.113 1.875c-4.57-.062-8.3 3.669-8.238 8.238.061 4.383 3.63 7.951 8.012 8.012 4.57.063 8.3-3.668 8.237-8.237-.06-4.384-3.628-7.952-8.01-8.013ZM9.97 7.817a2.596 2.596 0 0 1 .664-1.36c.503-.536 1.217-.832 2.01-.832.333-.001.664.055.978.166.39.14.743.37 1.027.672.417.451.665 1.033.703 1.646a3.369 3.369 0 0 1-.522 2.016 3.12 3.12 0 0 1-.338.43c-.512.547-1.169.849-1.848.849a2.327 2.327 0 0 1-.987-.22 2.766 2.766 0 0 1-.862-.629 3.272 3.272 0 0 1-.86-2.005 3.337 3.337 0 0 1 .034-.732v-.001Zm-5.85.95a2.339 2.339 0 0 1 .312-1.013 2.173 2.173 0 0 1 1.145-.938 2.494 2.494 0 0 1 1.303-.093 2.226 2.226 0 0 1 1.804 2.172 2.796 2.796 0 0 1-.464 1.587 2.553 2.553 0 0 1-.798.768 2.115 2.115 0 0 1-.39.182 1.929 1.929 0 0 1-.634.107c-.036 0-.072 0-.108-.003a1.876 1.876 0 0 1-.423-.072 2.091 2.091 0 0 1-.399-.16c-.703-.372-1.233-1.14-1.337-2.037a2.59 2.59 0 0 1-.01-.5Zm2.107 6.977a6.925 6.925 0 0 1-2.42-2.76.156.156 0 0 1 .064-.205c.726-.408 1.652-.63 2.528-.63.664 0 1.2.078 1.668.23a.312.312 0 0 1 .101.537c-.912.742-1.5 1.662-1.776 2.764a.108.108 0 0 1-.117.082.109.109 0 0 1-.048-.018ZM10 16.875a6.84 6.84 0 0 1-2.566-.497.156.156 0 0 1-.094-.174 4.2 4.2 0 0 1 .048-.214c.278-1.11.967-2.031 1.992-2.663.91-.561 2.07-.87 3.263-.87 1.217 0 2.343.296 3.26.856a.106.106 0 0 1 .036.144A6.88 6.88 0 0 1 10 16.875Z"/>
  <path d="M8.678 9.143c.006-.084.008-.167.006-.25.002.082 0 .165-.006.25Zm-4.546.122c.104.899.635 1.665 1.337 2.036-.703-.37-1.233-1.139-1.337-2.036Zm5.803-.71Z"/>
</svg>
