<svg xmlns="http://www.w3.org/2000/svg" width="27" height="27" fill="currentColor" viewBox="0 0 27 27">
  <path d="M21.03 26.25c-1.144 0-2.751-.414-5.157-1.758-2.925-1.641-5.188-3.156-8.098-6.058-2.806-2.804-4.17-4.619-6.082-8.096C-.465 6.413-.097 4.355.314 3.475c.49-1.05 1.213-1.68 2.148-2.304A10.33 10.33 0 0 1 4.14.281L4.3.21c.29-.13.73-.328 1.287-.117.371.14.703.424 1.222.937C7.875 2.08 9.33 4.42 9.866 5.567c.36.774.599 1.285.6 1.858 0 .67-.338 1.188-.748 1.747-.076.105-.152.205-.226.302-.446.586-.544.755-.48 1.058.131.607 1.105 2.416 2.707 4.014 1.601 1.598 3.358 2.51 3.968 2.64.315.068.488-.034 1.093-.495.086-.067.175-.135.268-.204.625-.464 1.119-.793 1.774-.793h.003c.57 0 1.058.247 1.867.655 1.055.532 3.463 1.968 4.52 3.034.514.518.8.848.94 1.22.211.558.013.995-.117 1.288-.022.049-.046.102-.07.161a10.35 10.35 0 0 1-.897 1.675c-.623.932-1.254 1.653-2.307 2.143a3.951 3.951 0 0 1-1.732.38Z"/>
</svg>
