<svg xmlns="http://www.w3.org/2000/svg" width="24" height="24" fill="currentColor" viewBox="0 0 24 24">
  <path d="M12.61 15.732a8.081 8.081 0 0 1-1.327-.01 8.256 8.256 0 0 1-5.984-3.42.188.188 0 0 0-.318.017l-3.375 6.066c-.128.234-.148.515-.013.744a.786.786 0 0 0 .667.371h3.657a.716.716 0 0 1 .638.344l1.812 3.031a.762.762 0 0 0 .645.375.827.827 0 0 0 .682-.45l3.1-6.804a.187.187 0 0 0-.185-.264Zm9.78 2.637-3.354-6.055a.188.188 0 0 0-.316-.017 8.273 8.273 0 0 1-3.67 2.88.754.754 0 0 0-.41.386l-1.727 3.802a.372.372 0 0 0 0 .309l1.419 3.121a.827.827 0 0 0 .68.455.765.765 0 0 0 .643-.381l1.806-3.027a.727.727 0 0 1 .646-.342h3.692c.313 0 .55-.163.656-.47a.793.793 0 0 0-.066-.661ZM12.012 9.75a2.25 2.25 0 1 0 0-4.5 2.25 2.25 0 0 0 0 4.5Z"/>
  <path d="M12.012.75a6.757 6.757 0 0 0-6.75 6.75 6.758 6.758 0 0 0 6.75 6.75 6.758 6.758 0 0 0 6.75-6.75 6.757 6.757 0 0 0-6.75-6.75Zm0 10.5a3.75 3.75 0 1 1 0-7.5 3.75 3.75 0 0 1 0 7.5Z"/>
</svg>
