<svg width="30" height="30" viewBox="0 0 30 30" fill="none" xmlns="http://www.w3.org/2000/svg">
<path d="M19.2681 9.1875C18.9063 9.1877 18.5558 9.31334 18.2762 9.54301C17.9966 9.77268 17.8054 10.0922 17.735 10.4471C17.6646 10.8019 17.7194 11.1703 17.8901 11.4892C18.0608 11.8082 18.3368 12.0582 18.6712 12.1965C19.0055 12.3348 19.3774 12.3529 19.7236 12.2477C20.0698 12.1425 20.3688 11.9206 20.5696 11.6197C20.7705 11.3187 20.8608 10.9575 20.8252 10.5974C20.7896 10.2374 20.6303 9.90085 20.3743 9.64512C20.2292 9.49969 20.0568 9.3844 19.8669 9.30586C19.6771 9.22733 19.4735 9.1871 19.2681 9.1875Z" fill="white" style="fill:white;fill-opacity:1;"/>
<path d="M27.975 2.93307C27.9747 2.93132 27.9747 2.92954 27.975 2.9278C27.9254 2.7106 27.8162 2.51157 27.6595 2.35317C27.5029 2.19476 27.3051 2.08328 27.0885 2.03131C25.3424 1.60534 22.5955 2.05944 19.5516 3.27819C16.4836 4.50866 13.609 6.32506 11.666 8.27155C11.0432 8.89101 10.4647 9.55338 9.93457 10.2538C8.62617 10.1952 7.47363 10.3815 6.50273 10.8051C3.11953 12.294 2.15332 16.1044 1.89609 17.6688C1.85887 17.8911 1.87344 18.119 1.93868 18.3347C2.00391 18.5505 2.11805 18.7482 2.27221 18.9126C2.42636 19.0771 2.61638 19.2037 2.82747 19.2827C3.03856 19.3617 3.26503 19.3909 3.48925 19.368H3.49687L7.26562 18.9567C7.27031 19.0048 7.27558 19.0487 7.27968 19.0891C7.32809 19.5484 7.53289 19.977 7.85976 20.3032L9.69902 22.1436C10.0247 22.4709 10.4533 22.676 10.9125 22.7243L11.0385 22.7378L10.6283 26.5018C10.6283 26.5018 10.6283 26.5065 10.6283 26.5094C10.6074 26.7122 10.6289 26.917 10.6917 27.1109C10.7544 27.3048 10.8569 27.4835 10.9926 27.6356C11.1283 27.7876 11.2943 27.9097 11.4798 27.9939C11.6654 28.0782 11.8665 28.1228 12.0703 28.1249C12.1518 28.1249 12.2331 28.1183 12.3135 28.1049C13.8867 27.8518 17.6953 26.8973 19.1801 23.496C19.6002 22.5315 19.7859 21.3837 19.7338 20.0776C20.4373 19.5487 21.1021 18.97 21.723 18.3462C23.6818 16.3973 25.5041 13.5462 26.7217 10.5227C27.934 7.51334 28.3904 4.74596 27.975 2.93307ZM21.702 13.1799C21.2205 13.6619 20.6069 13.9902 19.9388 14.1234C19.2708 14.2565 18.5782 14.1886 17.9488 13.928C17.3193 13.6675 16.7813 13.2261 16.4028 12.6598C16.0242 12.0934 15.8222 11.4275 15.8222 10.7463C15.8222 10.065 16.0242 9.39911 16.4028 8.83274C16.7813 8.26638 17.3193 7.82501 17.9488 7.56448C18.5782 7.30395 19.2708 7.23597 19.9388 7.36913C20.6069 7.50229 21.2205 7.83061 21.702 8.31256C22.0246 8.63041 22.2809 9.00926 22.4558 9.42707C22.6307 9.84488 22.7208 10.2933 22.7208 10.7463C22.7208 11.1992 22.6307 11.6476 22.4558 12.0654C22.2809 12.4832 22.0246 12.8621 21.702 13.1799Z" fill="white" style="fill:white;fill-opacity:1;"/>
<path d="M9.48839 22.6441C9.26166 22.616 9.03247 22.6716 8.84386 22.8006C8.46945 23.0566 8.09328 23.3097 7.71359 23.5564C6.94542 24.0556 6.02667 23.1791 6.48312 22.3845L7.19503 21.1541C7.29681 21.0052 7.35349 20.8301 7.35826 20.6498C7.36303 20.4695 7.3157 20.2917 7.22194 20.1376C7.12817 19.9835 6.99196 19.8598 6.82964 19.7812C6.66731 19.7026 6.48576 19.6725 6.30675 19.6945C5.51662 19.7944 4.78216 20.1543 4.21906 20.7175C4.0046 20.9326 3.35246 21.5853 3.00148 24.0726C2.90158 24.7871 2.8386 25.5062 2.81281 26.2271C2.8096 26.3522 2.83148 26.4767 2.87716 26.5933C2.92283 26.7098 2.99138 26.816 3.07875 26.9056C3.16613 26.9952 3.27057 27.0664 3.38591 27.115C3.50124 27.1637 3.62515 27.1887 3.75031 27.1886H3.77375C4.49523 27.1631 5.21493 27.1005 5.92999 27.0011C8.41847 26.6496 9.07121 25.9968 9.28566 25.7824C9.85149 25.219 10.2105 24.4811 10.3046 23.6882C10.3347 23.4416 10.2657 23.193 10.1126 22.9972C9.95958 22.8014 9.73505 22.6744 9.48839 22.6441Z" fill="white" style="fill:white;fill-opacity:1;"/>
</svg>
