<svg width="20" height="20" viewBox="0 0 20 20" fill="none" xmlns="http://www.w3.org/2000/svg">
<path d="M10 14.375C9.8912 14.375 9.78429 14.3466 9.68984 14.2926L4.21875 11.1656C4.17121 11.1382 4.11728 11.1238 4.06238 11.1238C4.00749 11.1238 3.95357 11.1383 3.90605 11.1658C3.85853 11.1932 3.81909 11.2328 3.79169 11.2803C3.7643 11.3279 3.74992 11.3818 3.75 11.4367V14.375C3.74991 14.4866 3.77967 14.5961 3.8362 14.6923C3.89273 14.7884 3.97397 14.8677 4.07148 14.9219L9.69648 18.0469C9.78933 18.0985 9.89379 18.1255 10 18.1255C10.1062 18.1255 10.2107 18.0985 10.3035 18.0469L15.9285 14.9219C16.026 14.8677 16.1073 14.7884 16.1638 14.6923C16.2203 14.5961 16.2501 14.4866 16.25 14.375V11.4367C16.2501 11.3818 16.2357 11.3279 16.2083 11.2803C16.1809 11.2328 16.1415 11.1932 16.094 11.1658C16.0464 11.1383 15.9925 11.1238 15.9376 11.1238C15.8827 11.1238 15.8288 11.1382 15.7812 11.1656L10.3102 14.2926C10.2157 14.3466 10.1088 14.375 10 14.375Z" fill="#0A0B0D" fill-opacity="0.5" style="fill:#0A0B0D;fill:color(display-p3 0.0400 0.0425 0.0500);fill-opacity:0.5;"/>
<path d="M19.3719 7.44137C19.3719 7.44137 19.3719 7.43825 19.3719 7.43708C19.3618 7.33801 19.3281 7.24279 19.2738 7.15935C19.2194 7.07591 19.1459 7.00667 19.0594 6.95739L10.3094 1.95739C10.2149 1.9034 10.108 1.875 9.99921 1.875C9.89041 1.875 9.7835 1.9034 9.68905 1.95739L0.939052 6.95739C0.843421 7.01206 0.763941 7.09104 0.708661 7.18633C0.653382 7.28161 0.624268 7.38981 0.624268 7.49997C0.624268 7.61012 0.653382 7.71832 0.708661 7.81361C0.763941 7.90889 0.843421 7.98787 0.939052 8.04254L9.68905 13.0425C9.7835 13.0965 9.89041 13.1249 9.99921 13.1249C10.108 13.1249 10.2149 13.0965 10.3094 13.0425L18.0078 8.64372C18.0197 8.63685 18.0332 8.63324 18.0469 8.63325C18.0607 8.63326 18.0742 8.6369 18.0861 8.64379C18.0979 8.65069 18.1078 8.66059 18.1146 8.67251C18.1215 8.68443 18.125 8.69794 18.125 8.71169V14.3574C18.125 14.6937 18.3836 14.9824 18.7199 14.9992C18.8044 15.0033 18.8889 14.9901 18.9682 14.9606C19.0474 14.9311 19.1199 14.8857 19.1811 14.8274C19.2424 14.769 19.2912 14.6988 19.3245 14.6211C19.3578 14.5433 19.375 14.4596 19.375 14.375V7.49997C19.3749 7.48039 19.3739 7.46084 19.3719 7.44137Z" fill="#0A0B0D" fill-opacity="0.5" style="fill:#0A0B0D;fill:color(display-p3 0.0400 0.0425 0.0500);fill-opacity:0.5;"/>
</svg>
