<svg xmlns="http://www.w3.org/2000/svg" width="20" height="20" fill="currentColor" viewBox="0 0 20 20">
  <path d="M10 14.375a.625.625 0 0 1-.31-.082l-5.471-3.127a.313.313 0 0 0-.469.27v2.939a.625.625 0 0 0 .321.547l5.625 3.125a.626.626 0 0 0 .607 0l5.625-3.125a.625.625 0 0 0 .322-.547v-2.938a.312.312 0 0 0-.469-.271l-5.47 3.127a.625.625 0 0 1-.311.082Z"/>
  <path d="M19.372 7.441v-.004a.626.626 0 0 0-.313-.48l-8.75-5a.625.625 0 0 0-.62 0l-8.75 5a.625.625 0 0 0 0 1.086l8.75 5a.625.625 0 0 0 .62 0l7.699-4.4a.078.078 0 0 1 .117.069v5.645c0 .337.259.625.595.642a.624.624 0 0 0 .655-.624V7.5c0-.02-.001-.04-.003-.059Z"/>
</svg>
