<svg width="15" height="17" viewBox="0 0 15 17" fill="none" xmlns="http://www.w3.org/2000/svg">
<path d="M11.7422 0.647461C12.1909 0.464654 12.6908 0.451153 13.1484 0.610352C13.6061 0.769656 13.9902 1.09069 14.2285 1.5127C14.4668 1.93484 14.5435 2.43002 14.4434 2.9043C14.3431 3.37847 14.0731 3.80018 13.6846 4.08984C13.296 4.37944 12.815 4.51688 12.332 4.47754C11.8489 4.43811 11.3961 4.2239 11.0596 3.875L10.792 3.59668L10.4551 3.78613L4.67383 7.03906L4.33594 7.22949L4.43555 7.60352C4.52507 7.93971 4.52505 8.29368 4.43555 8.62988L4.33594 9.00488L4.67383 9.19434L10.4551 12.4473L10.793 12.6377L11.0615 12.3574C11.2475 12.1629 11.4712 12.0081 11.7188 11.9023C11.9661 11.7967 12.232 11.7421 12.501 11.7422H12.502C12.9195 11.7422 13.3265 11.8731 13.666 12.1162C14.0056 12.3594 14.261 12.7023 14.3955 13.0977C14.53 13.493 14.5368 13.9206 14.416 14.3203C14.2951 14.7201 14.0518 15.0725 13.7207 15.3271C13.3897 15.5816 12.9876 15.7259 12.5703 15.7402C12.1528 15.7545 11.7412 15.6377 11.3936 15.4062C11.0459 15.1748 10.7787 14.8408 10.6309 14.4502C10.483 14.0596 10.4612 13.6322 10.5684 13.2285L10.668 12.8545L10.3311 12.6641L4.5498 9.41113L4.21191 9.22168L3.94336 9.50098C3.66709 9.78903 3.31108 9.98828 2.9209 10.0723C2.53071 10.1563 2.12422 10.1215 1.75391 9.97266C1.38359 9.82378 1.06624 9.56702 0.842773 9.23633C0.61949 8.90578 0.500064 8.51608 0.5 8.11719C0.5 7.71809 0.61933 7.32775 0.842773 6.99707C1.06624 6.66638 1.38359 6.40962 1.75391 6.26074C2.12419 6.1119 2.53075 6.07813 2.9209 6.16211C3.31099 6.2461 3.66714 6.44444 3.94336 6.73242L4.21191 7.01172L4.5498 6.82227L10.3311 3.56934L10.668 3.37988L10.5684 3.00488C10.4436 2.53652 10.494 2.03843 10.71 1.60449C10.9259 1.17056 11.2933 0.830429 11.7422 0.647461Z" fill="#2E7AE6" stroke="#2E7AE6" style="fill:#2E7AE6;fill:color(display-p3 0.1800 0.4800 0.9000);fill-opacity:1;stroke:#2E7AE6;stroke:color(display-p3 0.1800 0.4800 0.9000);stroke-opacity:1;"/>
</svg>
