<svg width="14" height="14" viewBox="0 0 14 14" fill="none" xmlns="http://www.w3.org/2000/svg">
<g clip-path="url(#clip0_4081_11147)">
<path d="M5.68767 14.0002C5.54941 14.0009 5.41423 13.9594 5.30018 13.8812C5.18614 13.803 5.09867 13.6919 5.04947 13.5627L3.9601 10.7299C3.93803 10.6728 3.90428 10.6209 3.86101 10.5777C3.81773 10.5344 3.76589 10.5006 3.70881 10.4786L0.875174 9.38838C0.746096 9.33884 0.635074 9.25132 0.55676 9.13738C0.478447 9.02344 0.436523 8.88843 0.436523 8.75017C0.436523 8.61192 0.478447 8.47691 0.55676 8.36297C0.635074 8.24903 0.746096 8.16151 0.875174 8.11197L3.70799 7.0226C3.76507 7.00053 3.81691 6.96678 3.86019 6.92351C3.90346 6.88023 3.93721 6.82839 3.95927 6.77131L5.04947 3.93767C5.09901 3.8086 5.18653 3.69757 5.30047 3.61926C5.41441 3.54095 5.54942 3.49902 5.68767 3.49902C5.82593 3.49902 5.96094 3.54095 6.07488 3.61926C6.18882 3.69757 6.27634 3.8086 6.32588 3.93767L7.41525 6.77049C7.43732 6.82757 7.47107 6.87941 7.51434 6.92269C7.55762 6.96596 7.60946 6.99971 7.66654 7.02178L10.4829 8.10541C10.6173 8.1552 10.733 8.24518 10.8144 8.36309C10.8957 8.48101 10.9388 8.62113 10.9377 8.76439C10.9356 8.90024 10.8928 9.03234 10.8148 9.14359C10.7368 9.25484 10.6272 9.34011 10.5002 9.38838L7.66736 10.4778C7.61028 10.4998 7.55844 10.5336 7.51516 10.5768C7.47189 10.6201 7.43814 10.672 7.41607 10.729L6.32588 13.5627C6.27667 13.6919 6.18921 13.803 6.07516 13.8812C5.96112 13.9594 5.82594 14.0009 5.68767 14.0002Z" fill="white" style="fill:white;fill-opacity:1;"/>
<path d="M2.4062 4.81242C2.32514 4.81242 2.24598 4.78786 2.17916 4.74198C2.11234 4.69609 2.06098 4.63104 2.03186 4.55539L1.57085 3.35664C1.56085 3.33043 1.54543 3.30662 1.52559 3.28678C1.50576 3.26694 1.48195 3.25152 1.45573 3.24153L0.25698 2.78051C0.181341 2.75138 0.116301 2.70002 0.0704274 2.6332C0.0245541 2.56638 0 2.48723 0 2.40617C0 2.32512 0.0245541 2.24597 0.0704274 2.17915C0.116301 2.11232 0.181341 2.06097 0.25698 2.03184L1.45573 1.57082C1.48192 1.56079 1.50571 1.54535 1.52554 1.52552C1.54537 1.50568 1.56081 1.4819 1.57085 1.45571L2.02776 0.26762C2.05353 0.197675 2.09787 0.136075 2.15602 0.0894394C2.21417 0.042804 2.28393 0.0128969 2.3578 0.00293219C2.44649 -0.00784939 2.53624 0.0112854 2.61282 0.0573023C2.6894 0.103319 2.74842 0.173584 2.78053 0.256956L3.24155 1.45571C3.25159 1.4819 3.26702 1.50568 3.28686 1.52552C3.30669 1.54535 3.33048 1.56079 3.35667 1.57082L4.55542 2.03184C4.63106 2.06097 4.6961 2.11232 4.74197 2.17915C4.78784 2.24597 4.8124 2.32512 4.8124 2.40617C4.8124 2.48723 4.78784 2.56638 4.74197 2.6332C4.6961 2.70002 4.63106 2.75138 4.55542 2.78051L3.35667 3.24153C3.33045 3.25152 3.30664 3.26694 3.2868 3.28678C3.26696 3.30662 3.25154 3.33043 3.24155 3.35664L2.78053 4.55539C2.75142 4.63104 2.70006 4.69609 2.63324 4.74198C2.56641 4.78786 2.48726 4.81242 2.4062 4.81242Z" fill="white" style="fill:white;fill-opacity:1;"/>
<path d="M10.9376 7.00016C10.8492 7.00014 10.7629 6.97331 10.69 6.92323C10.6171 6.87315 10.5611 6.80216 10.5294 6.71962L9.90486 5.09622C9.89388 5.06761 9.877 5.04163 9.85534 5.01997C9.83367 4.9983 9.80769 4.98142 9.77908 4.97044L8.15568 4.34591C8.07321 4.31413 8.00229 4.25811 7.95228 4.18524C7.90226 4.11236 7.87549 4.02605 7.87549 3.93766C7.87549 3.84928 7.90226 3.76296 7.95228 3.69009C8.00229 3.61722 8.07321 3.5612 8.15568 3.52942L9.77908 2.90489C9.80769 2.8939 9.83367 2.87703 9.85534 2.85536C9.877 2.83369 9.89388 2.80771 9.90486 2.77911L10.5247 1.16719C10.553 1.09097 10.6015 1.02384 10.6649 0.972946C10.7283 0.922053 10.8043 0.8893 10.8849 0.878171C10.9816 0.866456 11.0796 0.887401 11.1631 0.937681C11.2466 0.987962 11.3109 1.0647 11.3459 1.15571L11.9704 2.77911C11.9814 2.80771 11.9983 2.83369 12.0199 2.85536C12.0416 2.87703 12.0676 2.8939 12.0962 2.90489L13.7196 3.52942C13.8021 3.5612 13.873 3.61722 13.923 3.69009C13.973 3.76296 13.9998 3.84928 13.9998 3.93766C13.9998 4.02605 13.973 4.11236 13.923 4.18524C13.873 4.25811 13.8021 4.31413 13.7196 4.34591L12.0962 4.97044C12.0676 4.98142 12.0416 4.9983 12.0199 5.01997C11.9983 5.04163 11.9814 5.06761 11.9704 5.09622L11.3459 6.71962C11.3142 6.80216 11.2582 6.87315 11.1853 6.92323C11.1124 6.97331 11.0261 7.00014 10.9376 7.00016Z" fill="white" style="fill:white;fill-opacity:1;"/>
</g>
<defs>
<clipPath id="clip0_4081_11147">
<rect width="14" height="14" fill="white" style="fill:white;fill-opacity:1;"/>
</clipPath>
</defs>
</svg>
