<svg width="29" height="29" viewBox="0 0 29 29" fill="none" xmlns="http://www.w3.org/2000/svg">
<g clip-path="url(#clip0_4012_1705)">
<path d="M14.506 29.0121C22.5175 29.0121 29.0121 22.5175 29.0121 14.506C29.0121 6.49457 22.5175 0 14.506 0C6.49457 0 0 6.49457 0 14.506C0 22.5175 6.49457 29.0121 14.506 29.0121Z" fill="#2E7AE6" style="fill:#2E7AE6;fill:color(display-p3 0.1800 0.4800 0.9000);fill-opacity:1;"/>
<path fill-rule="evenodd" clip-rule="evenodd" d="M6.55847 14.3492C10.7859 12.5133 13.6001 11.2934 15.0133 10.7015C19.0354 9.02266 19.8808 8.73278 20.4244 8.7207C20.5451 8.7207 20.8109 8.74486 20.992 8.8898C21.137 9.01058 21.1732 9.1676 21.1974 9.28838C21.2215 9.40917 21.2457 9.66281 21.2215 9.85606C21.0041 12.1509 20.062 17.719 19.5789 20.2796C19.3735 21.3667 18.975 21.729 18.5885 21.7653C17.743 21.8377 17.1028 21.2097 16.2936 20.6782C15.0133 19.8448 14.3007 19.3255 13.0566 18.5041C11.6193 17.562 12.5493 17.0427 13.3706 16.1972C13.588 15.9798 17.2961 12.5978 17.3685 12.2959C17.3806 12.2596 17.3806 12.1147 17.2961 12.0422C17.2115 11.9698 17.0907 11.9939 16.9941 12.0181C16.8613 12.0422 14.8321 13.395 10.8825 16.0643C10.3027 16.4629 9.78337 16.6561 9.31232 16.6441C8.79295 16.632 7.80253 16.3542 7.05368 16.1126C6.14781 15.8227 5.42311 15.6657 5.4835 15.1584C5.51973 14.8927 5.88208 14.627 6.55847 14.3492Z" fill="white" style="fill:white;fill-opacity:1;"/>
</g>
<defs>
<clipPath id="clip0_4012_1705">
<rect width="29" height="29" fill="white" style="fill:white;fill-opacity:1;"/>
</clipPath>
</defs>
</svg>
