<svg width="24" height="24" viewBox="0 0 24 24" fill="none" xmlns="http://www.w3.org/2000/svg">
<path d="M12 2.73828C13.7643 2.73828 15.4208 3.37216 16.6699 4.5166L16.6709 4.51758C17.746 5.50131 18.484 6.80423 18.8291 8.33984V8.34082C18.8808 8.57321 18.9979 8.78652 19.166 8.95508C19.3339 9.12336 19.5465 9.23959 19.7783 9.29199V9.29297C20.5687 9.47186 21.3103 9.80203 21.9053 10.2432C22.9598 11.0244 23.4999 12.082 23.5 13.3193C23.5 14.6188 22.9884 15.684 22.0264 16.4326C21.1682 17.0998 19.9436 17.4883 18.5625 17.4883H13.25V12.0049L14.1172 12.8721V12.873C14.2336 12.9893 14.3723 13.0808 14.5244 13.1436C14.6765 13.2063 14.8394 13.2387 15.0039 13.2383C15.1684 13.2378 15.3316 13.2051 15.4834 13.1416C15.6353 13.078 15.7738 12.9852 15.8896 12.8682L15.8887 12.8672C16.3573 12.3939 16.3476 11.6631 15.9531 11.1816L15.8691 11.0889L12.8838 8.10449C12.6494 7.87025 12.3314 7.73828 12 7.73828C11.71 7.73828 11.4304 7.83935 11.208 8.02148L11.1162 8.10449L8.13086 11.0898C7.67025 11.5506 7.61112 12.3185 8.07422 12.8281V12.8291C8.18781 12.9542 8.32586 13.0547 8.47949 13.125C8.63339 13.1954 8.80055 13.2342 8.96973 13.2383C9.13874 13.2424 9.30689 13.2122 9.46387 13.1494C9.62099 13.0866 9.76412 12.9917 9.88379 12.8721L10.75 12.0059V17.4883H6.375C4.88241 17.4883 3.50044 17.0276 2.44531 16.2031L2.23926 16.0332C1.11503 15.0603 0.500055 13.7223 0.5 12.251C0.5 10.8839 1.00079 9.68584 1.95801 8.75098L2.15527 8.56836C2.94593 7.87168 3.99503 7.36882 5.17383 7.13086C5.3647 7.09229 5.54399 7.00975 5.69727 6.88965C5.85026 6.76966 5.97362 6.61525 6.05664 6.43945C6.43014 5.65315 6.95645 4.95065 7.60352 4.37207L7.8877 4.13184C9.03062 3.223 10.4499 2.73828 12 2.73828Z" fill="#0C0C0D" stroke="#0C0C0D" style="fill:#0C0C0D;fill:color(display-p3 0.0475 0.0481 0.0500);fill-opacity:1;stroke:#0C0C0D;stroke:color(display-p3 0.0475 0.0481 0.0500);stroke-opacity:1;"/>
<path d="M11.25 21.008C11.25 21.2069 11.329 21.3976 11.4697 21.5383C11.6103 21.679 11.8011 21.758 12 21.758C12.1989 21.758 12.3897 21.679 12.5303 21.5383C12.671 21.3976 12.75 21.2069 12.75 21.008V17.9883H11.25V21.008Z" fill="#0C0C0D" style="fill:#0C0C0D;fill:color(display-p3 0.0475 0.0481 0.0500);fill-opacity:1;"/>
</svg>
