<svg width="24" height="24" viewBox="0 0 24 24" fill="none" xmlns="http://www.w3.org/2000/svg">
<g clip-path="url(#clip0_539_3761)">
<path d="M0 11.52C0 6.0894 0 3.37413 1.68707 1.68707C3.37413 0 6.0894 0 11.52 0H12.48C17.9106 0 20.6259 0 22.313 1.68707C24 3.37413 24 6.0894 24 11.52V12.48C24 17.9106 24 20.6259 22.313 22.313C20.6259 24 17.9106 24 12.48 24H11.52C6.0894 24 3.37413 24 1.68707 22.313C0 20.6259 0 17.9106 0 12.48V11.52Z" fill="#0077FF" style="fill:#0077FF;fill:color(display-p3 0.0000 0.4667 1.0000);fill-opacity:1;"/>
<path d="M12.7702 17.2903C7.30024 17.2903 4.18029 13.5403 4.05029 7.30029H6.79029C6.88029 11.8803 8.90024 13.8203 10.5002 14.2203V7.30029H13.0803V11.2503C14.6603 11.0803 16.3201 9.28029 16.8801 7.30029H19.4602C19.0302 9.74029 17.2302 11.5403 15.9502 12.2803C17.2302 12.8803 19.2803 14.4503 20.0603 17.2903H17.2202C16.6102 15.3903 15.0903 13.9203 13.0803 13.7203V17.2903H12.7702Z" fill="white" style="fill:white;fill-opacity:1;"/>
</g>
<defs>
<clipPath id="clip0_539_3761">
<rect width="24" height="24" fill="white" style="fill:white;fill-opacity:1;"/>
</clipPath>
</defs>
</svg>
