<svg width="50" height="50" viewBox="0 0 50 50" fill="none" xmlns="http://www.w3.org/2000/svg">
<g clip-path="url(#clip0_2043_28468)">
<path d="M25.0098 6.8601e-05C11.2196 6.8601e-05 0.00493161 11.21 2.59765e-05 24.9888C-0.00676545 29.6938 1.31826 34.3047 3.82192 38.2885L4.41673 39.2336L1.89074 48.4552L11.3529 45.9743L12.2666 46.5156C16.104 48.7929 20.5039 49.9975 24.991 50H25.0004C38.7799 50 49.9946 38.7888 49.9999 25.0092C50.0103 21.7249 49.3691 18.4712 48.1133 15.4364C46.8576 12.4015 45.0124 9.64594 42.6844 7.32909C40.3693 4.99949 37.6151 3.1522 34.5813 1.89417C31.5474 0.63614 28.2941 -0.00765057 25.0098 6.8601e-05Z" fill="url(#paint0_linear_2043_28468)"/>
<path fill-rule="evenodd" clip-rule="evenodd" d="M17.4829 12.4172C16.9196 11.1659 16.3268 11.1405 15.7917 11.1189L14.351 11.1013C13.8499 11.1013 13.0355 11.2893 12.3471 12.0415C11.6587 12.7937 9.71645 14.6115 9.71645 18.3089C9.71645 22.0063 12.4096 25.5791 12.7849 26.0811C13.1602 26.583 17.9841 34.4124 25.6234 37.4247C31.9717 39.9281 33.2635 39.4302 34.642 39.3051C36.0205 39.18 39.0885 37.4872 39.7144 35.7323C40.3403 33.9775 40.3407 32.474 40.153 32.1596C39.9654 31.8453 39.4642 31.6584 38.712 31.2824C37.9598 30.9063 34.2655 29.0884 33.5766 28.8375C32.8878 28.5865 32.387 28.4618 31.8854 29.2139C31.3838 29.9661 29.9452 31.658 29.5066 32.1596C29.0679 32.6612 28.6301 32.7241 27.8779 32.3485C27.1257 31.9728 24.7056 31.1789 21.8342 28.6188C19.6001 26.6268 18.092 24.1667 17.6529 23.415C17.2139 22.6632 17.6063 22.2561 17.9833 21.8817C18.3205 21.5448 18.7346 21.004 19.1111 20.5654C19.4877 20.1268 19.6115 19.8132 19.8617 19.3125C20.1119 18.8117 19.9872 18.3719 19.7992 17.9962C19.6111 17.6205 18.1509 13.9035 17.4829 12.4172Z" fill="white" style="fill:white;fill-opacity:1;"/>
</g>
<defs>
<linearGradient id="paint0_linear_2043_28468" x1="24.491" y1="3.00054" x2="24.7444" y2="45.7286" gradientUnits="userSpaceOnUse">
<stop stop-color="#57D163" style="stop-color:#57D163;stop-color:color(display-p3 0.3412 0.8196 0.3882);stop-opacity:1;"/>
<stop offset="1" stop-color="#23B33A" style="stop-color:#23B33A;stop-color:color(display-p3 0.1373 0.7020 0.2275);stop-opacity:1;"/>
</linearGradient>
<clipPath id="clip0_2043_28468">
<rect width="50" height="50" fill="white" style="fill:white;fill-opacity:1;"/>
</clipPath>
</defs>
</svg>
